<svg width="48" height="48" viewBox="0 0 48 48" fill="none" xmlns="http://www.w3.org/2000/svg">
<rect width="48" height="48" rx="16" fill="black"/>
<path d="M24.0101 44.0665C21.2264 44.0665 18.6123 43.5422 16.1676 42.4935C13.7226 41.4448 11.5911 40.0137 9.77309 38.2C7.95509 36.3863 6.52743 34.2542 5.49009 31.8035C4.45243 29.3532 3.93359 26.7288 3.93359 23.9305C3.93359 21.1682 4.45243 18.5615 5.49009 16.1105C6.52743 13.6592 7.95509 11.5377 9.77309 9.746C11.5911 7.95467 13.7219 6.538 16.1656 5.496C18.6093 4.45433 21.2259 3.9335 24.0156 3.9335C26.7779 3.9335 29.3826 4.45433 31.8296 5.496C34.2766 6.538 36.4091 7.95467 38.2271 9.746C40.0451 11.5377 41.4728 13.6607 42.5101 16.115C43.5478 18.5693 44.0666 21.1797 44.0666 23.946C44.0666 26.7407 43.5478 29.3615 42.5101 31.8085C41.4728 34.2558 40.0451 36.3863 38.2271 38.2C36.4091 40.0137 34.2741 41.4448 31.8221 42.4935C29.3701 43.5422 26.7661 44.0665 24.0101 44.0665ZM24.0001 40.6895C25.1471 39.3778 26.0878 37.9665 26.8221 36.4555C27.5561 34.9448 28.1671 33.2425 28.6551 31.3485H19.3656C19.8569 33.2392 20.4741 34.9497 21.2171 36.48C21.9604 38.0107 22.8881 39.4138 24.0001 40.6895ZM20.2606 40.168C19.4143 39.069 18.6613 37.7608 18.0016 36.2435C17.3419 34.7265 16.8154 33.0948 16.4221 31.3485H8.98609C10.1244 33.6818 11.6351 35.5732 13.5181 37.0225C15.4011 38.4715 17.6486 39.52 20.2606 40.168ZM27.7731 40.1475C30.1644 39.6208 32.3559 38.5823 34.3476 37.032C36.3389 35.4817 37.9056 33.5872 39.0476 31.3485H31.6366C31.1679 33.0948 30.6023 34.7242 29.9396 36.2365C29.2773 37.7488 28.5551 39.0525 27.7731 40.1475ZM7.94759 28.5025H15.8756C15.7613 27.6905 15.6828 26.9095 15.6401 26.1595C15.5971 25.4095 15.5756 24.6717 15.5756 23.946C15.5756 23.1657 15.6004 22.4163 15.6501 21.698C15.6998 20.9797 15.7818 20.2393 15.8961 19.477H7.94759C7.71859 20.1753 7.55559 20.8877 7.45859 21.614C7.36159 22.3407 7.31309 23.118 7.31309 23.946C7.31309 24.783 7.36159 25.575 7.45859 26.322C7.55559 27.069 7.71859 27.7958 7.94759 28.5025ZM18.7806 28.5025H29.2411C29.3804 27.6275 29.4749 26.8372 29.5246 26.1315C29.5739 25.4258 29.5986 24.6973 29.5986 23.946C29.5986 23.217 29.5739 22.5087 29.5246 21.821C29.4749 21.1333 29.3801 20.352 29.2401 19.477H18.7796C18.6403 20.352 18.5458 21.1333 18.4961 21.821C18.4468 22.5087 18.4221 23.217 18.4221 23.946C18.4221 24.6973 18.4468 25.4258 18.4961 26.1315C18.5458 26.8372 18.6406 27.6275 18.7806 28.5025ZM32.1371 28.5025H40.0871C40.2931 27.7958 40.4446 27.069 40.5416 26.322C40.6386 25.575 40.6871 24.783 40.6871 23.946C40.6871 23.118 40.6386 22.3407 40.5416 21.614C40.4446 20.8877 40.2931 20.1753 40.0871 19.477H32.1706C32.2543 20.4377 32.3209 21.2645 32.3706 21.9575C32.4203 22.6508 32.4451 23.3137 32.4451 23.946C32.4451 24.6853 32.4168 25.4142 32.3601 26.1325C32.3038 26.8512 32.2294 27.6412 32.1371 28.5025ZM31.6161 16.631H39.0476C37.9286 14.3033 36.3894 12.375 34.4301 10.846C32.4708 9.317 30.2406 8.29483 27.7396 7.7795C28.5859 8.95117 29.3359 10.279 29.9896 11.763C30.6436 13.2467 31.1858 14.8693 31.6161 16.631ZM19.3656 16.631H28.6886C28.2383 14.903 27.6214 13.2407 26.8381 11.644C26.0548 10.047 25.1088 8.555 24.0001 7.168C22.9634 8.379 22.0794 9.72967 21.3481 11.22C20.6171 12.71 19.9563 14.5137 19.3656 16.631ZM8.98609 16.631H16.4361C16.8404 14.9103 17.3584 13.3137 17.9901 11.841C18.6218 10.3683 19.3674 9.02133 20.2271 7.8C17.7221 8.324 15.4978 9.337 13.5541 10.839C11.6104 12.3413 10.0878 14.272 8.98609 16.631Z" fill="#F7F9FC"/>
</svg>
